<svg xmlns="http://www.w3.org/2000/svg" version="1.1" xmlns:xlink="http://www.w3.org/1999/xlink" xmlns:svgjs="http://svgjs.dev/svgjs" width="100%" height="100%" viewBox="0 0 1000 600"><rect width="1000" height="600" x="0" y="0" fill="#ec4d37"/><g><rect width="333.3333333333333" height="333.3333333333333" rx="13.333333333333334" ry="13.333333333333334" y="246.69432463118807" fill="#1d1b1b" transform="matrix(0.556861959593973,0,0,0.556861959593973,0,69.81496929268309)" x="224.4720916748047"/><path d="M276.2388752069399 487.5364941105358L276.2388752069399 485.0335494023051Q276.2388752069399 484.2090499690056 277.1517138652358 484.2090499690056L277.1517138652358 484.2090499690056L280.06690829011626 484.2090499690056Q290.19647275636754 484.2090499690056 296.3802185061139 479.8804279441831Q302.53451784752826 475.52235951102847 302.53451784752826 469.7214170695997L302.53451784752826 469.7214170695997L302.53451784752826 355.1159958409661Q302.53451784752826 352.96640803272095 301.6511255975645 352.7013903577318Q300.7677333476007 352.4363726827427 299.5309841976514 352.23024782441775L299.5309841976514 352.23024782441775L259.77833294928155 352.23024782441775Q250.14935742467642 354.29149640766656 247.1458237747996 367.0417912154771L247.1458237747996 367.0417912154771Q245.49682490820055 373.8733579485302 245.17291441654717 375.7873744901184Q244.8784503332259 377.7013910317066 244.02450449159426 377.7013910317066L244.02450449159426 377.7013910317066L242.16938076667034 377.7013910317066Q241.5510061916957 377.7013910317066 241.5510061916957 377.28914131505684L241.5510061916957 377.28914131505684L241.5510061916957 373.8733579485302L245.37903927487204 341.57064800818824Q245.9974138498467 338.3609894999865 247.44028785812085 338.3609894999865Q248.91260827472715 338.3609894999865 250.5616071413262 340.3633452665711Q252.21060600792524 342.3951474414877 256.8631385244011 342.3951474414877L256.8631385244011 342.3951474414877L368.4650261031579 342.3951474414877Q372.9114337613089 342.3951474414877 373.8537188279369 341.3645231498634Q374.79600389456493 340.3338988582389 375.62050332786447 339.33272097494665Q376.445002761164 338.3609894999865 377.7406447277775 338.3609894999865Q379.03628669439104 338.3609894999865 379.3896435943766 339.39161379161095Q379.74300049436204 340.4222380832353 379.94912535268696 341.57064800818824L379.94912535268696 341.57064800818824L383.77715843586327 373.8733579485302L383.77715843586327 377.28914131505684Q383.77715843586327 377.7013910317066 383.15878386088866 377.7013910317066L383.15878386088866 377.7013910317066L381.3036601359647 377.7013910317066Q380.47916070266524 377.7013910317066 380.15525021101183 376.1407313901039L380.15525021101183 376.1407313901039Q378.5062513444128 365.77559565719565 375.4143784695396 359.73908194910985Q372.29305918633423 353.67312183269195 365.5792780866095 352.23024782441775L365.5792780866095 352.23024782441775L325.7088412049112 352.23024782441775Q324.47209205496193 352.4363726827427 323.58869980499816 352.7013903577318Q322.7053075550344 352.96640803272095 322.7053075550344 355.1159958409661L322.7053075550344 355.1159958409661L322.7053075550344 469.7214170695997Q322.7053075550344 475.52235951102847 328.85960689644867 479.8804279441831Q335.0433526461951 484.2090499690056 345.1729171124464 484.2090499690056L345.1729171124464 484.2090499690056L348.1764507623232 484.2090499690056Q349.00095019562275 484.2090499690056 349.00095019562275 485.0335494023051L349.00095019562275 485.0335494023051L349.00095019562275 487.5364941105358Q349.00095019562275 488.3609935438353 348.1764507623232 488.3609935438353L348.1764507623232 488.3609935438353L277.06337464023943 488.3609935438353Q276.2388752069399 488.3609935438353 276.2388752069399 487.5364941105358L276.2388752069399 487.5364941105358ZM445.49683029999903 485.0335494023051L445.49683029999903 487.5364941105358Q445.49683029999903 488.3609935438353 444.67233086669944 488.3609935438353L444.67233086669944 488.3609935438353L391.7571350938694 488.3609935438353Q390.9326356605699 488.3609935438353 390.9326356605699 487.5364941105358L390.9326356605699 487.5364941105358L390.9326356605699 485.0335494023051Q390.9326356605699 484.2090499690056 392.2871704438477 484.2090499690056L392.2871704438477 484.2090499690056Q406.4508928516002 483.59067539403094 411.4273358597294 469.103042494625L411.4273358597294 469.103042494625L453.68293181633 346.84155509963875Q453.77127104132626 346.6354302413138 453.77127104132626 346.3409661579926L453.77127104132626 346.3409661579926L452.62286111637343 342.925182791466Q452.62286111637343 342.3951474414877 453.03511083302317 342.3951474414877L453.03511083302317 342.3951474414877L473.76538229883977 342.3951474414877Q473.97150715716464 342.4834866664841 474.32486405715014 342.60127229981265Q474.67822095713564 342.71905793314113 474.8843458154605 343.2196468747873L474.8843458154605 343.2196468747873L518.6711550053316 466.09950884474824Q520.1434754219379 468.89691763630015 520.9974212635695 471.1642910778738Q521.8808135135333 473.46111092777966 523.0292234384863 475.3162346527036L523.0292234384863 475.3162346527036Q525.5027217383848 479.5565174525297 531.2153249548172 481.85333730243553L531.2153249548172 481.85333730243553Q535.9561966962895 484.2090499690056 539.9020154127943 484.2090499690056L539.9020154127943 484.2090499690056Q540.7265148460938 484.2090499690056 540.7265148460938 485.15133503563356L540.7265148460938 485.15133503563356L540.7265148460938 487.5364941105358Q540.7265148460938 488.3609935438353 539.9020154127943 488.3609935438353L539.9020154127943 488.3609935438353L476.5333446820596 488.3609935438353Q475.70884524876004 488.3609935438353 475.70884524876004 487.5364941105358L475.70884524876004 487.5364941105358L475.70884524876004 485.0335494023051Q475.70884524876004 484.2090499690056 479.53687833193635 484.00292511068074Q483.3943578234449 483.7968002523558 485.8678561233435 483.59067539403094L485.8678561233435 483.59067539403094Q500.26714979775295 482.0594621607604 500.26714979775295 473.87336064442945L500.26714979775295 473.87336064442945Q500.26714979775295 473.2549860694548 500.0610249394281 472.43048663615525L500.0610249394281 472.43048663615525L484.42498211506927 428.31976695463084Q484.3071964817408 428.11364209630597 484.01273239841953 427.3774818880028L484.01273239841953 427.3774818880028Q482.7465368401381 423.87335929647986 479.65466396526494 423.87335929647986L479.65466396526494 423.87335929647986L442.9055463667719 423.87335929647986Q439.7842270835665 423.87335929647986 438.0468889919712 427.28914266300643L438.0468889919712 427.28914266300643Q437.72297850031777 427.99585646297743 437.72297850031777 428.11364209630597L437.72297850031777 428.11364209630597L422.2047213092875 473.54945015277605L422.2047213092875 474.49173521940406Q422.2047213092875 477.1713583776275 425.0021301008394 479.35039259420483L425.0021301008394 479.35039259420483Q431.3036614839143 484.2090499690056 441.9632613001439 484.2090499690056L441.9632613001439 484.2090499690056L444.67233086669944 484.2090499690056Q445.49683029999903 484.2090499690056 445.49683029999903 485.0335494023051L445.49683029999903 485.0335494023051ZM445.5851695249954 412.38926004695077L476.12109496540984 412.38926004695077Q478.0056650986659 412.38926004695077 478.0056650986659 410.8286004053481L478.0056650986659 410.8286004053481Q478.0056650986659 410.0041009720486 477.59341538201613 408.97347668042414L477.59341538201613 408.97347668042414L462.1634974159822 366.51175586549874Q461.13287312435773 363.71434707394684 460.6028377743795 363.71434707394684L460.6028377743795 363.71434707394684Q460.0728024244012 363.71434707394684 458.95383890778044 366.6295414988273L458.95383890778044 366.6295414988273L444.46620600837457 408.97347668042414Q444.05395629172483 410.0041009720486 444.05395629172483 411.18195730533364Q444.05395629172483 412.38926004695077 445.5851695249954 412.38926004695077L445.5851695249954 412.38926004695077Z " fill="#ec4d37" transform="matrix(0.556861959593973,0,0,0.556861959593973,0,69.81496929268309)"/><path d="M680.8062176171013 401.09851794577844L721.7207065575374 401.09851794577844Q735.7349582120264 401.09851794577844 735.7349582120264 387.4108696137457L735.7349582120264 387.4108696137457Q735.7349582120264 386.57951570203875 736.5663121237334 386.57951570203875L736.5663121237334 386.57951570203875L739.0603738588542 386.57951570203875Q739.8917277705613 386.57951570203875 739.8917277705613 387.4108696137457L739.8917277705613 387.4108696137457L739.8917277705613 426.2469737749144Q739.8917277705613 427.0783276866214 739.0603738588542 427.0783276866214L739.0603738588542 427.0783276866214L736.5663121237334 427.0783276866214Q735.7349582120264 427.0783276866214 735.7349582120264 426.2469737749144L735.7349582120264 426.2469737749144Q735.7349582120264 416.6567125791518 730.3014665747987 413.0046936098676L730.3014665747987 413.0046936098676Q727.3620366726918 411.01538246399735 721.9285450354641 411.01538246399735L721.9285450354641 411.01538246399735L680.8062176171013 411.01538246399735Q678.3121558819803 411.01538246399735 678.3121558819803 413.8360475215746L678.3121558819803 413.8360475215746L678.3121558819803 467.4880660378069Q678.3121558819803 474.58426549844853 686.8038422658444 477.96906356754124Q695.3252198608409 481.35386163663395 697.5817519069027 481.35386163663395Q699.8085927418322 481.35386163663395 699.8085927418322 482.1852155483409L699.8085927418322 482.1852155483409L699.8085927418322 484.7089684945942Q699.8085927418322 485.5403224063012 698.9772388301251 485.5403224063012L698.9772388301251 485.5403224063012L641.9701134559325 485.5403224063012Q641.1387595442256 485.5403224063012 641.1387595442256 484.7089684945942L641.1387595442256 484.7089684945942L641.1387595442256 482.1852155483409Q641.1387595442256 481.35386163663395 642.9202322121691 481.35386163663395Q644.7017048801126 481.35386163663395 648.442797482794 479.69115381321996Q652.2135812966078 478.028445989806 655.0936287764498 474.7327215541105Q657.9439850451595 471.436997118415 657.9439850451595 466.74578575949704L657.9439850451595 466.74578575949704L657.9439850451595 354.0082570898048Q657.9439850451595 347.2386609516194 650.7587119511206 344.29923104951257L650.7587119511206 344.29923104951257Q646.5722511814533 342.54744959270147 642.5045552563156 342.54744959270147L642.5045552563156 342.54744959270147L642.088878300462 342.54744959270147Q641.2575243887552 342.54744959270147 641.2575243887552 341.6864044698621L641.2575243887552 341.6864044698621L641.2575243887552 339.1923427347412Q641.2575243887552 338.36098882303423 642.088878300462 338.36098882303423L642.088878300462 338.36098882303423L740.5152432043416 338.36098882303423Q741.762274071902 338.56882730096095 742.4154807168146 338.92512183454966Q743.0389961505949 339.31110757927075 743.0389961505949 340.7659769247579L743.0389961505949 340.7659769247579L743.0389961505949 366.0331975984235Q743.0389961505949 367.28022846598395 742.6530104058737 367.57714057730794Q742.2967158722851 367.9037438997642 741.3465971160484 367.9037438997642L741.3465971160484 367.9037438997642L740.099566248488 367.9037438997642Q739.8917277705613 367.78497905523466 738.7040793252655 362.2030313623449Q737.4867396688375 356.62108366945523 734.9926779337165 353.5925801339513L734.9926779337165 353.5925801339513Q730.7171435306522 349.02013361956296 725.2836518934243 348.48569181917986L725.2836518934243 348.48569181917986Q723.0865022696273 348.2778533412531 719.9689251007262 348.2778533412531L719.9689251007262 348.2778533412531L680.3905406612478 348.2778533412531Q678.3121558819803 348.2778533412531 678.3121558819803 350.3562381205206L678.3121558819803 350.3562381205206L678.3121558819803 398.6935298440547Q678.3121558819803 401.09851794577844 680.8062176171013 401.09851794577844L680.8062176171013 401.09851794577844ZM825.7884015765711 468.3194199495139Q825.7884015765711 471.0213201625615 828.3715369450894 472.65433677484305Q830.924981102475 474.2576621759922 834.2503967493029 474.2576621759922Q837.6055036072631 474.2576621759922 839.8323444421927 472.5355719303135Q842.0888764882544 470.8134816846348 842.9202303999615 470.8134816846348Q843.7515843116684 470.8134816846348 843.7515843116684 473.0700137306966Q843.7515843116684 475.29685456562595 841.6731995324009 476.8704887556427L841.6731995324009 476.8704887556427Q826.0259312656304 488.3609874638784 820.473674783873 488.3609874638784L820.473674783873 488.3609874638784Q813.7931522790849 488.3609874638784 809.6363827205499 474.465500653919L809.6363827205499 474.465500653919Q809.3097793980936 473.42630826428524 809.1019409201671 473.5450731088148L809.1019409201671 473.5450731088148Q796.156572866444 483.254099149107 792.8311572196161 485.21371908384486L792.8311572196161 485.21371908384486Q784.250397202355 490.14246013182196 775.6399459739613 486.78735327386164Q767.0294947455676 483.46193762703376 763.1696372983566 475.7422227326118L763.1696372983566 475.7422227326118Q761.2990909970159 471.7636004408713 761.2990909970159 467.28022755988013L761.2990909970159 467.28022755988013Q761.2990909970159 458.4025554312949 767.8608486572745 453.1769022719939Q774.4522975286656 447.95124911269295 792.9202308530133 443.17096412037785L792.9202308530133 443.17096412037785Q799.1850764019481 441.47856508583146 804.0841262387927 438.8954297173134Q808.9831760756373 436.2826031376629 809.250396975829 435.54032285935307Q809.5176178760204 434.7980425810433 809.5176178760204 434.17452714726306L809.5176178760204 434.17452714726306L809.5176178760204 414.1329596328985Q809.5176178760204 402.3455488133389 800.3430336361113 397.5355726098914L800.3430336361113 397.5355726098914Q797.3145301006074 395.991629631007 793.0686869086752 395.991629631007Q788.8525349278756 395.991629631007 784.5176181025464 399.3170452778349Q780.1827012772172 402.6721521357952 780.1827012772172 408.8182328402003L780.1827012772172 408.8182328402003L780.7171430776003 412.885928765338Q780.09362764382 414.1329596328985 773.2052666611052 417.0723895350053Q766.3169056783901 419.98212822597975 765.2480220776241 420.18996670390646L765.2480220776241 420.18996670390646Q763.5853142542102 420.18996670390646 763.5853142542102 416.18165320103355Q763.5853142542102 412.17333969816065 765.9903023559337 407.24459865018355Q768.3952904576576 402.3455488133389 772.7895897052516 398.2778528882012L772.7895897052516 398.2778528882012Q783.0033663347944 388.7766653258358 796.156572866444 388.7766653258358Q809.3097793980936 388.7766653258358 817.5639360928986 396.0213208421394Q825.7884015765711 403.2956675695754 825.7884015765711 413.30160572119155L825.7884015765711 413.30160572119155L825.7884015765711 468.3194199495139ZM777.6886395420962 465.29091641400987Q777.6886395420962 470.30873109538413 781.5484969893072 474.0201324869331Q785.4083544365182 477.7018426673497 790.3667866956276 477.7018426673497Q795.3252189547371 477.7018426673497 802.4214184153788 473.48569068655Q809.5176178760204 469.2695387057504 809.5176178760204 464.7564746136268L809.5176178760204 464.7564746136268L809.5176178760204 443.58664107623133Q809.5176178760204 442.42868384206804 808.9831760756373 442.42868384206804Q808.4784254863868 442.42868384206804 808.27058700846 442.5474486865976L808.27058700846 442.5474486865976L784.0425587244282 453.8004177057742Q780.3014661217468 456.53200912995425 778.9950528319215 458.4025554312949Q777.6886395420962 460.2731017326356 777.6886395420962 465.29091641400987ZM912.7539589833474 391.597330383413L952.3026522116935 391.597330383413Q953.4606094458567 391.8942424947369 953.4606094458567 393.0521997289002Q953.4606094458567 394.21015696306347 953.1636973345329 394.7149075523142Q952.8370940120766 395.2493493526972 948.5615596090121 395.8728647864774Q944.2860252059476 396.49638022025766 942.4451701157394 398.337235310466Q940.6340062366634 400.14839918954186 939.2088281023085 402.46431365786844Q937.8133411790863 404.75053691506264 936.7741487894524 407.21490743905116Q935.7052651886864 409.6495867519073 934.7848376435821 411.63889789777755L934.7848376435821 411.63889789777755L906.2812749564858 485.3324839283745Q905.0342440889254 488.3609874638784 903.9950516992916 488.3609874638784L903.9950516992916 488.3609874638784L895.7408950044868 488.3609874638784Q894.7017026148529 488.3609874638784 893.4546717472925 485.1246454504477L893.4546717472925 485.1246454504477L865.7824629719033 410.27310218568755Q861.9226055246924 399.7327222336884 852.5104915957239 396.7042186981844L852.5104915957239 396.7042186981844Q851.7979025285466 396.49638022025766 850.758710138913 396.4073065868605L850.758710138913 396.4073065868605Q846.3644108913189 395.991629631007 846.3644108913189 393.79448000721Q846.3644108913189 391.597330383413 848.8584726264397 391.597330383413L848.8584726264397 391.597330383413L895.3252180486332 391.597330383413Q896.1565719603401 391.597330383413 896.1565719603401 393.2006557845622Q896.1565719603401 394.8336723968437 894.9986147261769 395.3384229860944L894.9986147261769 395.3384229860944Q893.1280684248362 396.0807032644042 888.3180922213886 395.991629631007L888.3180922213886 395.991629631007Q880.5093036935697 395.78379115308024 880.5093036935697 402.25647517994173L880.5093036935697 402.25647517994173L881.1328191273498 404.75053691506264L902.3026526647453 462.67808983435935Q904.4107286551451 467.99281662705755 906.4891134344126 462.3811777230354L906.4891134344126 462.3811777230354Q906.6969519123394 461.8467359226524 909.1910136474604 455.58189037371767L909.1910136474604 455.58189037371767Q923.2943389353464 419.5664512701262 925.0164291810253 413.92512115497175Q926.7385194267039 408.2837910398173 926.7385194267039 405.49281719337245Q926.7385194267039 402.6721521357952 923.7100158912 399.58426617802644Q920.6815123556961 396.49638022025766 915.5746240409245 396.49638022025766Q910.4677357261531 396.49638022025766 910.4677357261531 393.3788030513565L910.4677357261531 393.3788030513565Q910.4677357261531 391.597330383413 912.7539589833474 391.597330383413L912.7539589833474 391.597330383413ZM1008.3596588296494 485.5403224063012L961.8038397740589 485.5403224063012Q960.7646473844251 485.3324839283745 960.7646473844251 484.08545306081396L960.7646473844251 484.08545306081396Q960.7646473844251 482.1852155483409 965.6636972212697 481.5617001145606L965.6636972212697 481.5617001145606Q976.9463574515788 479.89899229114667 976.9463574515788 469.6852156616038L976.9463574515788 469.6852156616038L976.9463574515788 414.45956295535484Q976.9463574515788 410.0652637077608 972.1363812481312 408.40255588434684L972.1363812481312 408.40255588434684Q970.0579964688637 407.66027560603703 967.6530083671399 407.21490743905116Q965.2480202654164 406.7398480609329 963.8525333421939 406.3241711050794Q962.427355207839 405.90849414922593 962.0710606742504 405.52250840450483Q961.7147661406617 405.1662138709161 961.7147661406617 403.97856542562045Q961.7147661406617 402.7612257691924 963.2884003306784 401.9298718574854L963.2884003306784 401.9298718574854L989.8917255053017 389.400180759616Q991.1387563728621 388.7766653258358 991.4653596953184 388.7766653258358L991.4653596953184 388.7766653258358Q993.2468323632619 388.7766653258358 993.2468323632619 391.2707270609567L993.2468323632619 391.2707270609567L993.2468323632619 469.6852156616038Q993.2468323632619 479.89899229114667 1004.4998013824385 481.5617001145606L1004.4998013824385 481.5617001145606Q1009.3988512192833 482.1852155483409 1009.3988512192833 483.75884973835764Q1009.3988512192833 485.3324839283745 1008.3596588296494 485.5403224063012L1008.3596588296494 485.5403224063012ZM983.5674975341022 359.44174872703246Q979.2325807087728 359.44174872703246 975.9665474842099 356.7398485139848Q972.6708230485143 354.0082570898048 972.6708230485143 349.1685896752249Q972.6708230485143 344.29923104951257 975.7884002174154 341.47856599193534Q978.9356685974491 338.6875921454905 983.2705854227783 338.6875921454905Q987.6055022481074 338.6875921454905 990.5746233613467 342.01300779231843Q993.5437444745859 345.3681146502787 993.5437444745859 349.22797209748967Q993.5437444745859 353.0878295447006 990.7230794170088 356.2647891358666Q987.9024143594314 359.44174872703246 983.5674975341022 359.44174872703246ZM1103.8762850425546 401.30635642370515L1103.8762850425546 401.30635642370515Q1103.8762850425546 408.6103943622736 1095.4142898698228 408.6103943622736L1095.4142898698228 408.6103943622736Q1091.1387554667585 408.6103943622736 1088.169634353519 406.1460238382851Q1085.20051324028 403.7113445254289 1083.5674966279985 401.9892542797502Q1081.964171226849 400.26716403407147 1080.1826985589055 398.81229468858425L1080.1826985589055 398.81229468858425Q1072.6708221424105 392.6365227730467 1061.8632212902198 397.4464989764942Q1051.055620438029 402.25647517994173 1045.2064518449479 417.90374344671227L1045.2064518449479 417.90374344671227Q1041.9701098315172 426.57357709737073 1041.9701098315172 435.1246459034996L1041.9701098315172 435.1246459034996Q1041.9701098315172 453.50350559445025 1050.3430313708518 465.1424603583479Q1058.6862616990538 476.78141512224556 1075.9071641558412 476.78141512224556L1075.9071641558412 476.78141512224556Q1088.7337673650345 476.78141512224556 1098.9772352057098 465.29091641400987L1098.9772352057098 465.29091641400987Q1102.0948123746111 461.8467359226524 1102.7183278083912 461.8467359226524Q1103.3715344533039 461.8467359226524 1104.0841235204812 462.47025135643264Q1104.826403798791 463.09376679021284 1104.826403798791 464.3111064466409Q1104.826403798791 465.4987548919366 1104.202888365011 466.12227032571684L1104.202888365011 466.12227032571684Q1088.2290167757837 488.3609874638784 1064.0009884917522 488.3609874638784L1064.0009884917522 488.3609874638784Q1046.4831739236406 488.3609874638784 1035.2598961155968 475.29685456562595Q1024.0366183075525 462.26241287850587 1024.0366183075525 445.45718737757204L1024.0366183075525 445.45718737757204Q1024.1256919409498 414.34079811082523 1039.0603711405429 400.68284098992496L1039.0603711405429 400.68284098992496Q1052.2135776721925 388.65790048130617 1076.5306795896213 388.65790048130617L1076.5306795896213 388.65790048130617Q1091.5544324226116 388.65790048130617 1096.4831734705886 391.6864040168102Q1101.3822233074334 394.7149075523142 1103.3715344533039 399.3170452778349L1103.3715344533039 399.3170452778349Q1103.8762850425546 400.35623766746863 1103.8762850425546 401.30635642370515ZM1119.9689214763107 438.62820881712184Q1119.9689214763107 418.11158192463904 1134.5176149311828 403.3253587807078Q1149.066308386055 388.568826847909 1169.4344792228758 388.568826847909Q1189.7729588485645 388.568826847909 1204.826402892687 402.9096818248544Q1219.8501557256773 417.28022801293207 1219.8501557256773 438.36098791693036Q1219.8501557256773 459.44174782092864 1205.5983743821294 473.90136764240356Q1191.3465930385814 488.3609874638784 1169.8501561787293 488.3609874638784Q1148.3537193188777 488.3609874638784 1134.161320397594 473.75291158674156Q1119.9689214763107 459.1448357096047 1119.9689214763107 438.62820881712184ZM1145.9487312171536 465.4987548919366L1145.9487312171536 465.4987548919366Q1156.1625078466968 482.71965734872396 1173.8287784704698 482.71965734872396L1173.8287784704698 482.71965734872396Q1187.4867355913702 482.71965734872396 1194.731391107674 471.7636004408713Q1202.0057378351098 460.8075435330187 1202.0057378351098 444.8336719437918Q1202.0057378351098 428.8598003545649 1191.8216524166996 412.05457485363104Q1181.637566998289 395.2493493526972 1164.4166645415016 395.2493493526972L1164.4166645415016 395.2493493526972Q1151.7978998102349 395.2493493526972 1144.523553082799 406.1460238382851Q1137.2788975664953 417.0723895350053 1137.2788975664953 433.81823261367435Q1137.2788975664953 450.5640756923434 1145.9487312171536 465.4987548919366ZM1311.5959981247688 452.6721516827433L1311.5959981247688 452.6721516827433L1311.3881596468418 430.6412730225084Q1311.3881596468418 417.16146316840246 1309.101936389648 411.7279715311747Q1306.7860219213212 406.3241711050794 1303.2527677965668 403.5331972586346Q1299.6898224606794 400.7719146233221 1293.6921978119362 400.7719146233221Q1287.6945731631931 400.7719146233221 1268.2765210826087 410.1840285522904L1268.2765210826087 410.1840285522904Q1265.6636945029582 411.7279715311747 1265.5746208695614 413.0937672432648L1265.5746208695614 413.0937672432648L1265.5746208695614 469.2695387057504Q1265.5746208695614 479.80991865774956 1276.8572810998703 481.35386163663395L1276.8572810998703 481.35386163663395Q1281.7563309367147 482.0961419149437 1281.7563309367147 483.69946731609286Q1281.7563309367147 485.3324839283745 1280.717138547081 485.5403224063012L1280.717138547081 485.5403224063012L1234.1613194914903 485.5403224063012Q1233.0924358907241 485.3324839283745 1233.0924358907241 484.08545306081396L1233.0924358907241 484.08545306081396Q1233.0924358907241 482.0961419149437 1238.0211769387015 481.35386163663395L1238.0211769387015 481.35386163663395Q1249.2741459578779 479.80991865774956 1249.2741459578779 469.2695387057504L1249.2741459578779 469.2695387057504L1249.2741459578779 409.35267464058336Q1249.2741459578779 404.9583753929894 1244.4938609655628 403.2956675695754L1244.4938609655628 403.2956675695754Q1242.385784975163 402.5533872912656 1239.980796873439 402.07832791314735Q1237.605499982848 401.6032685350291 1236.180321848493 401.1875915791756Q1234.7848349252704 400.7719146233221 1234.3988491805494 400.4156200897334Q1234.042554646961 400.0593255561447 1234.042554646961 398.84198589971663Q1234.042554646961 397.65433745442095 1235.6161888369775 396.822983542714L1235.6161888369775 396.822983542714L1262.219514011601 384.29329244484455Q1263.4962360902937 383.66977701106435 1263.7931482016174 383.66977701106435L1263.7931482016174 383.66977701106435Q1265.5746208695614 383.66977701106435 1265.5746208695614 386.16383874618526L1265.5746208695614 386.16383874618526L1265.5746208695614 402.46431365786844Q1265.8715329808851 403.5035060475022 1266.405974781268 403.5035060475022L1266.405974781268 403.5035060475022Q1267.0294902150486 403.5035060475022 1270.8893476622593 401.6032685350291L1270.8893476622593 401.6032685350291Q1279.8560934242419 397.1198956540379 1288.9416040307538 392.963126095503Q1298.0271146372656 388.7766653258358 1303.9950480748762 388.7766653258358L1303.9950480748762 388.7766653258358Q1328.1043115143784 388.7766653258358 1328.1043115143784 432.71965780177584L1328.1043115143784 432.71965780177584L1327.154192758142 463.21253163474245L1327.154192758142 469.2695387057504Q1327.154192758142 477.40493055602576 1335.2895846084175 479.89899229114667L1335.2895846084175 479.89899229114667Q1338.7337650997752 481.05694952530996 1341.9107246909407 481.5320089034283Q1345.1173754932393 481.97737707041415 1346.0971854606082 482.4227452374Q1347.1066866391093 482.83842219325356 1347.1066866391093 484.08545306081396Q1347.1066866391093 485.3324839283745 1346.0378030383436 485.5403224063012L1346.0378030383436 485.5403224063012L1295.7408913800714 485.5403224063012Q1294.7016989904378 485.3324839283745 1294.7016989904378 484.08545306081396L1294.7016989904378 484.08545306081396Q1294.7016989904378 482.0961419149437 1299.6007488272821 481.35386163663395L1299.6007488272821 481.35386163663395Q1310.7646442130617 479.80991865774956 1310.7646442130617 468.40849358291103L1310.7646442130617 468.40849358291103Q1311.5959981247688 463.21253163474245 1311.5959981247688 452.6721516827433ZM1362.7539549058802 475.05932487656685Q1362.7539549058802 469.47737718367716 1366.7028859864881 465.35029883627465Q1370.6815082782286 461.22322048887213 1376.3228383933833 461.22322048887213L1376.3228383933833 461.22322048887213Q1381.8454036640082 461.22322048887213 1385.8834083780134 465.23153399174504Q1389.8917218808865 469.2695387057504 1389.8917218808865 474.9999424543021Q1389.8917218808865 480.73034620285364 1385.913099589146 484.5605124389323Q1381.9641685085376 488.3609874638784 1376.3228383933833 488.3609874638784L1376.3228383933833 488.3609874638784Q1370.8002731227584 488.3609874638784 1366.7622684087528 484.5011300166675Q1362.7539549058802 480.64127256945653 1362.7539549058802 475.05932487656685ZM1457.3204623625484 485.5403224063012L1410.764643306958 485.5403224063012Q1409.725450917324 485.3324839283745 1409.725450917324 484.08545306081396L1409.725450917324 484.08545306081396Q1409.725450917324 482.1852155483409 1414.6245007541688 481.5617001145606L1414.6245007541688 481.5617001145606Q1425.9071609844777 479.89899229114667 1425.9071609844777 469.6852156616038L1425.9071609844777 469.6852156616038L1425.9071609844777 414.45956295535484Q1425.9071609844777 410.0652637077608 1421.0971847810301 408.40255588434684L1421.0971847810301 408.40255588434684Q1419.0188000017629 407.66027560603703 1416.6138119000393 407.21490743905116Q1414.2088237983153 406.7398480609329 1412.8133368750928 406.3241711050794Q1411.3881587407382 405.90849414922593 1411.0318642071493 405.52250840450483Q1410.6755696735609 405.1662138709161 1410.6755696735609 403.97856542562045Q1410.6755696735609 402.7612257691924 1412.2195126524452 401.9298718574854L1412.2195126524452 401.9298718574854L1438.8525290382008 389.400180759616Q1440.099559905761 388.7766653258358 1440.3964720170852 388.7766653258358L1440.3964720170852 388.7766653258358Q1442.1779446850287 388.7766653258358 1442.1779446850287 391.2707270609567L1442.1779446850287 391.2707270609567L1442.1779446850287 469.6852156616038Q1442.1779446850287 479.89899229114667 1453.4606049153376 481.5617001145606L1453.4606049153376 481.5617001145606Q1458.359654752182 482.1852155483409 1458.359654752182 483.75884973835764Q1458.359654752182 485.3324839283745 1457.3204623625484 485.5403224063012L1457.3204623625484 485.5403224063012ZM1432.5283010670014 359.44174872703246Q1428.193384241672 359.44174872703246 1424.8976598059767 356.7398485139848Q1421.6316265814135 354.0082570898048 1421.6316265814135 349.1685896752249Q1421.6316265814135 344.29923104951257 1424.7492037503143 341.47856599193534Q1427.8964721303482 338.6875921454905 1432.2313889556772 338.6875921454905Q1436.536614569874 338.6875921454905 1439.5354268942456 342.01300779231843Q1442.504548007485 345.3681146502787 1442.504548007485 349.22797209748967Q1442.504548007485 353.0878295447006 1439.683882949908 356.2647891358666Q1436.8632178923303 359.44174872703246 1432.5283010670014 359.44174872703246ZM1471.4237876504349 438.62820881712184Q1471.4237876504349 418.11158192463904 1485.9724811053065 403.3253587807078Q1500.5211745601787 388.568826847909 1520.8893453969995 388.568826847909Q1541.2575162338208 388.568826847909 1556.281269066811 402.9096818248544Q1571.3050218998014 417.28022801293207 1571.3050218998014 438.36098791693036Q1571.3050218998014 459.44174782092864 1557.053240556253 473.90136764240356Q1542.8014592127051 488.3609874638784 1521.305022352853 488.3609874638784Q1499.8085854930014 488.3609874638784 1485.6161865717181 473.75291158674156Q1471.4237876504349 459.1448357096047 1471.4237876504349 438.62820881712184ZM1497.4035973912778 465.4987548919366L1497.4035973912778 465.4987548919366Q1507.647065231953 482.71965734872396 1525.2836446445936 482.71965734872396L1525.2836446445936 482.71965734872396Q1538.941601765494 482.71965734872396 1546.2159484929302 471.7636004408713Q1553.460604009234 460.8075435330187 1553.460604009234 444.8336719437918Q1553.460604009234 428.8598003545649 1543.2765185908233 412.05457485363104Q1533.0924331724127 395.2493493526972 1515.8715307156253 395.2493493526972L1515.8715307156253 395.2493493526972Q1503.252765984359 395.2493493526972 1496.0081104680553 406.1460238382851Q1488.733763740619 417.0723895350053 1488.733763740619 433.81823261367435Q1488.733763740619 450.5640756923434 1497.4035973912778 465.4987548919366Z " fill="#1d1b1b" transform="matrix(0.556861959593973,0,0,0.556861959593973,0,69.81496929268309)"/></g></svg>